<?xml version="1.0" encoding="utf-8" standalone="no"?>
<!DOCTYPE svg PUBLIC "-//W3C//DTD SVG 1.1//EN"
  "http://www.w3.org/Graphics/SVG/1.1/DTD/svg11.dtd">
<svg xmlns:xlink="http://www.w3.org/1999/xlink" width="684pt" height="474.557812pt" viewBox="0 0 684 474.557812" xmlns="http://www.w3.org/2000/svg" version="1.1">
 <metadata>
  <rdf:RDF xmlns:dc="http://purl.org/dc/elements/1.1/" xmlns:cc="http://creativecommons.org/ns#" xmlns:rdf="http://www.w3.org/1999/02/22-rdf-syntax-ns#">
   <cc:Work>
    <dc:type rdf:resource="http://purl.org/dc/dcmitype/StillImage"/>
    <dc:date>2026-07-09T16:57:46.213175</dc:date>
    <dc:format>image/svg+xml</dc:format>
    <dc:creator>
     <cc:Agent>
      <dc:title>Matplotlib v3.10.0, https://matplotlib.org/</dc:title>
     </cc:Agent>
    </dc:creator>
   </cc:Work>
  </rdf:RDF>
 </metadata>
 <defs>
  <style type="text/css">*{stroke-linejoin: round; stroke-linecap: butt}</style>
 </defs>
 <g id="figure_1">
  <g id="patch_1">
   <path d="M 0 474.557812 
L 684 474.557812 
L 684 0 
L 0 0 
z
" style="fill: #ffffff"/>
  </g>
  <g id="axes_1">
   <g id="patch_2">
    <path d="M 63 136.935412 
L 230.4 136.935412 
Q 233.19 136.935412 233.19 134.717812 
L 233.19 81.495412 
Q 233.19 79.277812 230.4 79.277812 
L 63 79.277812 
Q 60.21 79.277812 60.21 81.495412 
L 60.21 134.717812 
Q 60.21 136.935412 63 136.935412 
z
" clip-path="url(#p93a4fb19d4)" style="fill: #4a90d9; opacity: 0.85; stroke: #ffffff; stroke-linejoin: miter"/>
   </g>
   <g id="patch_3">
    <path d="M 286.2 136.935412 
L 453.6 136.935412 
Q 456.39 136.935412 456.39 134.717812 
L 456.39 81.495412 
Q 456.39 79.277812 453.6 79.277812 
L 286.2 79.277812 
Q 283.41 79.277812 283.41 81.495412 
L 283.41 134.717812 
Q 283.41 136.935412 286.2 136.935412 
z
" clip-path="url(#p93a4fb19d4)" style="fill: #50c878; opacity: 0.85; stroke: #ffffff; stroke-linejoin: miter"/>
   </g>
   <g id="patch_4">
    <path d="M 509.4 136.935412 
L 648.9 136.935412 
Q 651.69 136.935412 651.69 134.717812 
L 651.69 81.495412 
Q 651.69 79.277812 648.9 79.277812 
L 509.4 79.277812 
Q 506.61 79.277812 506.61 81.495412 
L 506.61 134.717812 
Q 506.61 136.935412 509.4 136.935412 
z
" clip-path="url(#p93a4fb19d4)" style="fill: #f4a460; opacity: 0.85; stroke: #ffffff; stroke-linejoin: miter"/>
   </g>
   <g id="patch_5">
    <path d="M 118.8 225.639412 
L 258.3 225.639412 
Q 261.09 225.639412 261.09 223.421812 
L 261.09 170.199412 
Q 261.09 167.981812 258.3 167.981812 
L 118.8 167.981812 
Q 116.01 167.981812 116.01 170.199412 
L 116.01 223.421812 
Q 116.01 225.639412 118.8 225.639412 
z
" clip-path="url(#p93a4fb19d4)" style="fill: #9b59b6; opacity: 0.85; stroke: #ffffff; stroke-linejoin: miter"/>
   </g>
   <g id="patch_6">
    <path d="M 286.2 225.639412 
L 425.7 225.639412 
Q 428.49 225.639412 428.49 223.421812 
L 428.49 170.199412 
Q 428.49 167.981812 425.7 167.981812 
L 286.2 167.981812 
Q 283.41 167.981812 283.41 170.199412 
L 283.41 223.421812 
Q 283.41 225.639412 286.2 225.639412 
z
" clip-path="url(#p93a4fb19d4)" style="fill: #9b59b6; opacity: 0.85; stroke: #ffffff; stroke-linejoin: miter"/>
   </g>
   <g id="patch_7">
    <path d="M 453.6 225.639412 
L 593.1 225.639412 
Q 595.89 225.639412 595.89 223.421812 
L 595.89 170.199412 
Q 595.89 167.981812 593.1 167.981812 
L 453.6 167.981812 
Q 450.81 167.981812 450.81 170.199412 
L 450.81 223.421812 
Q 450.81 225.639412 453.6 225.639412 
z
" clip-path="url(#p93a4fb19d4)" style="fill: #e67e22; opacity: 0.85; stroke: #ffffff; stroke-linejoin: miter"/>
   </g>
   <g id="patch_8">
    <path d="M 118.8 314.343412 
L 258.3 314.343412 
Q 261.09 314.343412 261.09 312.125812 
L 261.09 258.903412 
Q 261.09 256.685812 258.3 256.685812 
L 118.8 256.685812 
Q 116.01 256.685812 116.01 258.903412 
L 116.01 312.125812 
Q 116.01 314.343412 118.8 314.343412 
z
" clip-path="url(#p93a4fb19d4)" style="fill: #e67e22; opacity: 0.85; stroke: #ffffff; stroke-linejoin: miter"/>
   </g>
   <g id="patch_9">
    <path d="M 286.2 314.343412 
L 425.7 314.343412 
Q 428.49 314.343412 428.49 312.125812 
L 428.49 258.903412 
Q 428.49 256.685812 425.7 256.685812 
L 286.2 256.685812 
Q 283.41 256.685812 283.41 258.903412 
L 283.41 312.125812 
Q 283.41 314.343412 286.2 314.343412 
z
" clip-path="url(#p93a4fb19d4)" style="fill: #1abc9c; opacity: 0.85; stroke: #ffffff; stroke-linejoin: miter"/>
   </g>
   <g id="patch_10">
    <path d="M 453.6 314.343412 
L 593.1 314.343412 
Q 595.89 314.343412 595.89 312.125812 
L 595.89 258.903412 
Q 595.89 256.685812 593.1 256.685812 
L 453.6 256.685812 
Q 450.81 256.685812 450.81 258.903412 
L 450.81 312.125812 
Q 450.81 314.343412 453.6 314.343412 
z
" clip-path="url(#p93a4fb19d4)" style="fill: #95a5a6; opacity: 0.85; stroke: #ffffff; stroke-linejoin: miter"/>
   </g>
   <g id="patch_11">
    <path d="M 202.5 403.047412 
L 481.5 403.047412 
Q 484.29 403.047412 484.29 400.829812 
L 484.29 347.607412 
Q 484.29 345.389812 481.5 345.389812 
L 202.5 345.389812 
Q 199.71 345.389812 199.71 347.607412 
L 199.71 400.829812 
Q 199.71 403.047412 202.5 403.047412 
z
" clip-path="url(#p93a4fb19d4)" style="fill: #34495e; opacity: 0.85; stroke: #ffffff; stroke-linejoin: miter"/>
   </g>
   <g id="text_1">
    <!-- Next.js Frontend -->
    <g style="fill: #ffffff" transform="translate(109.1025 105.692487) scale(0.08 -0.08)">
     <defs>
      <path id="DejaVuSans-Bold-4e" d="M 588 4666 
L 1931 4666 
L 3628 1466 
L 3628 4666 
L 4769 4666 
L 4769 0 
L 3425 0 
L 1728 3200 
L 1728 0 
L 588 0 
L 588 4666 
z
" transform="scale(0.015625)"/>
      <path id="DejaVuSans-Bold-65" d="M 4031 1759 
L 4031 1441 
L 1416 1441 
Q 1456 1047 1700 850 
Q 1944 653 2381 653 
Q 2734 653 3104 758 
Q 3475 863 3866 1075 
L 3866 213 
Q 3469 63 3072 -14 
Q 2675 -91 2278 -91 
Q 1328 -91 801 392 
Q 275 875 275 1747 
Q 275 2603 792 3093 
Q 1309 3584 2216 3584 
Q 3041 3584 3536 3087 
Q 4031 2591 4031 1759 
z
M 2881 2131 
Q 2881 2450 2695 2645 
Q 2509 2841 2209 2841 
Q 1884 2841 1681 2658 
Q 1478 2475 1428 2131 
L 2881 2131 
z
" transform="scale(0.015625)"/>
      <path id="DejaVuSans-Bold-78" d="M 1422 1791 
L 159 3500 
L 1344 3500 
L 2059 2463 
L 2784 3500 
L 3969 3500 
L 2706 1797 
L 4031 0 
L 2847 0 
L 2059 1106 
L 1281 0 
L 97 0 
L 1422 1791 
z
" transform="scale(0.015625)"/>
      <path id="DejaVuSans-Bold-74" d="M 1759 4494 
L 1759 3500 
L 2913 3500 
L 2913 2700 
L 1759 2700 
L 1759 1216 
Q 1759 972 1856 886 
Q 1953 800 2241 800 
L 2816 800 
L 2816 0 
L 1856 0 
Q 1194 0 917 276 
Q 641 553 641 1216 
L 641 2700 
L 84 2700 
L 84 3500 
L 641 3500 
L 641 4494 
L 1759 4494 
z
" transform="scale(0.015625)"/>
      <path id="DejaVuSans-Bold-2e" d="M 653 1209 
L 1778 1209 
L 1778 0 
L 653 0 
L 653 1209 
z
" transform="scale(0.015625)"/>
      <path id="DejaVuSans-Bold-6a" d="M 538 3500 
L 1656 3500 
L 1656 63 
Q 1656 -641 1318 -1011 
Q 981 -1381 341 -1381 
L -213 -1381 
L -213 -647 
L -19 -647 
Q 300 -647 419 -503 
Q 538 -359 538 63 
L 538 3500 
z
M 538 4863 
L 1656 4863 
L 1656 3950 
L 538 3950 
L 538 4863 
z
" transform="scale(0.015625)"/>
      <path id="DejaVuSans-Bold-73" d="M 3272 3391 
L 3272 2541 
Q 2913 2691 2578 2766 
Q 2244 2841 1947 2841 
Q 1628 2841 1473 2761 
Q 1319 2681 1319 2516 
Q 1319 2381 1436 2309 
Q 1553 2238 1856 2203 
L 2053 2175 
Q 2913 2066 3209 1816 
Q 3506 1566 3506 1031 
Q 3506 472 3093 190 
Q 2681 -91 1863 -91 
Q 1516 -91 1145 -36 
Q 775 19 384 128 
L 384 978 
Q 719 816 1070 734 
Q 1422 653 1784 653 
Q 2113 653 2278 743 
Q 2444 834 2444 1013 
Q 2444 1163 2330 1236 
Q 2216 1309 1875 1350 
L 1678 1375 
Q 931 1469 631 1722 
Q 331 1975 331 2491 
Q 331 3047 712 3315 
Q 1094 3584 1881 3584 
Q 2191 3584 2531 3537 
Q 2872 3491 3272 3391 
z
" transform="scale(0.015625)"/>
      <path id="DejaVuSans-Bold-20" transform="scale(0.015625)"/>
      <path id="DejaVuSans-Bold-46" d="M 588 4666 
L 3834 4666 
L 3834 3756 
L 1791 3756 
L 1791 2888 
L 3713 2888 
L 3713 1978 
L 1791 1978 
L 1791 0 
L 588 0 
L 588 4666 
z
" transform="scale(0.015625)"/>
      <path id="DejaVuSans-Bold-72" d="M 3138 2547 
Q 2991 2616 2845 2648 
Q 2700 2681 2553 2681 
Q 2122 2681 1889 2404 
Q 1656 2128 1656 1613 
L 1656 0 
L 538 0 
L 538 3500 
L 1656 3500 
L 1656 2925 
Q 1872 3269 2151 3426 
Q 2431 3584 2822 3584 
Q 2878 3584 2943 3579 
Q 3009 3575 3134 3559 
L 3138 2547 
z
" transform="scale(0.015625)"/>
      <path id="DejaVuSans-Bold-6f" d="M 2203 2784 
Q 1831 2784 1636 2517 
Q 1441 2250 1441 1747 
Q 1441 1244 1636 976 
Q 1831 709 2203 709 
Q 2569 709 2762 976 
Q 2956 1244 2956 1747 
Q 2956 2250 2762 2517 
Q 2569 2784 2203 2784 
z
M 2203 3584 
Q 3106 3584 3614 3096 
Q 4122 2609 4122 1747 
Q 4122 884 3614 396 
Q 3106 -91 2203 -91 
Q 1297 -91 786 396 
Q 275 884 275 1747 
Q 275 2609 786 3096 
Q 1297 3584 2203 3584 
z
" transform="scale(0.015625)"/>
      <path id="DejaVuSans-Bold-6e" d="M 4056 2131 
L 4056 0 
L 2931 0 
L 2931 347 
L 2931 1631 
Q 2931 2084 2911 2256 
Q 2891 2428 2841 2509 
Q 2775 2619 2662 2680 
Q 2550 2741 2406 2741 
Q 2056 2741 1856 2470 
Q 1656 2200 1656 1722 
L 1656 0 
L 538 0 
L 538 3500 
L 1656 3500 
L 1656 2988 
Q 1909 3294 2193 3439 
Q 2478 3584 2822 3584 
Q 3428 3584 3742 3212 
Q 4056 2841 4056 2131 
z
" transform="scale(0.015625)"/>
      <path id="DejaVuSans-Bold-64" d="M 2919 2988 
L 2919 4863 
L 4044 4863 
L 4044 0 
L 2919 0 
L 2919 506 
Q 2688 197 2409 53 
Q 2131 -91 1766 -91 
Q 1119 -91 703 423 
Q 288 938 288 1747 
Q 288 2556 703 3070 
Q 1119 3584 1766 3584 
Q 2128 3584 2408 3439 
Q 2688 3294 2919 2988 
z
M 2181 722 
Q 2541 722 2730 984 
Q 2919 1247 2919 1747 
Q 2919 2247 2730 2509 
Q 2541 2772 2181 2772 
Q 1825 2772 1636 2509 
Q 1447 2247 1447 1747 
Q 1447 1247 1636 984 
Q 1825 722 2181 722 
z
" transform="scale(0.015625)"/>
     </defs>
     <use xlink:href="#DejaVuSans-Bold-4e"/>
     <use xlink:href="#DejaVuSans-Bold-65" transform="translate(83.691406 0)"/>
     <use xlink:href="#DejaVuSans-Bold-78" transform="translate(151.513672 0)"/>
     <use xlink:href="#DejaVuSans-Bold-74" transform="translate(216.015625 0)"/>
     <use xlink:href="#DejaVuSans-Bold-2e" transform="translate(263.818359 0)"/>
     <use xlink:href="#DejaVuSans-Bold-6a" transform="translate(301.806641 0)"/>
     <use xlink:href="#DejaVuSans-Bold-73" transform="translate(336.083984 0)"/>
     <use xlink:href="#DejaVuSans-Bold-20" transform="translate(395.605469 0)"/>
     <use xlink:href="#DejaVuSans-Bold-46" transform="translate(430.419922 0)"/>
     <use xlink:href="#DejaVuSans-Bold-72" transform="translate(492.355469 0)"/>
     <use xlink:href="#DejaVuSans-Bold-6f" transform="translate(541.671875 0)"/>
     <use xlink:href="#DejaVuSans-Bold-6e" transform="translate(610.373047 0)"/>
     <use xlink:href="#DejaVuSans-Bold-74" transform="translate(681.564453 0)"/>
     <use xlink:href="#DejaVuSans-Bold-65" transform="translate(729.367188 0)"/>
     <use xlink:href="#DejaVuSans-Bold-6e" transform="translate(797.189453 0)"/>
     <use xlink:href="#DejaVuSans-Bold-64" transform="translate(868.380859 0)"/>
    </g>
    <!-- (frontend_v2) -->
    <g style="fill: #ffffff" transform="translate(116.009375 114.713237) scale(0.08 -0.08)">
     <defs>
      <path id="DejaVuSans-Bold-28" d="M 2413 -844 
L 1484 -844 
Q 1006 -72 778 623 
Q 550 1319 550 2003 
Q 550 2688 779 3389 
Q 1009 4091 1484 4856 
L 2413 4856 
Q 2013 4116 1813 3408 
Q 1613 2700 1613 2009 
Q 1613 1319 1811 609 
Q 2009 -100 2413 -844 
z
" transform="scale(0.015625)"/>
      <path id="DejaVuSans-Bold-66" d="M 2841 4863 
L 2841 4128 
L 2222 4128 
Q 1984 4128 1890 4042 
Q 1797 3956 1797 3744 
L 1797 3500 
L 2753 3500 
L 2753 2700 
L 1797 2700 
L 1797 0 
L 678 0 
L 678 2700 
L 122 2700 
L 122 3500 
L 678 3500 
L 678 3744 
Q 678 4316 997 4589 
Q 1316 4863 1984 4863 
L 2841 4863 
z
" transform="scale(0.015625)"/>
      <path id="DejaVuSans-Bold-5f" d="M 3200 -916 
L 3200 -1509 
L 0 -1509 
L 0 -916 
L 3200 -916 
z
" transform="scale(0.015625)"/>
      <path id="DejaVuSans-Bold-76" d="M 97 3500 
L 1216 3500 
L 2088 1081 
L 2956 3500 
L 4078 3500 
L 2700 0 
L 1472 0 
L 97 3500 
z
" transform="scale(0.015625)"/>
      <path id="DejaVuSans-Bold-32" d="M 1844 884 
L 3897 884 
L 3897 0 
L 506 0 
L 506 884 
L 2209 2388 
Q 2438 2594 2547 2791 
Q 2656 2988 2656 3200 
Q 2656 3528 2436 3728 
Q 2216 3928 1850 3928 
Q 1569 3928 1234 3808 
Q 900 3688 519 3450 
L 519 4475 
Q 925 4609 1322 4679 
Q 1719 4750 2100 4750 
Q 2938 4750 3402 4381 
Q 3866 4013 3866 3353 
Q 3866 2972 3669 2642 
Q 3472 2313 2841 1759 
L 1844 884 
z
" transform="scale(0.015625)"/>
      <path id="DejaVuSans-Bold-29" d="M 513 -844 
Q 913 -100 1113 609 
Q 1313 1319 1313 2009 
Q 1313 2700 1113 3408 
Q 913 4116 513 4856 
L 1441 4856 
Q 1916 4091 2145 3389 
Q 2375 2688 2375 2003 
Q 2375 1319 2147 623 
Q 1919 -72 1441 -844 
L 513 -844 
z
" transform="scale(0.015625)"/>
     </defs>
     <use xlink:href="#DejaVuSans-Bold-28"/>
     <use xlink:href="#DejaVuSans-Bold-66" transform="translate(45.703125 0)"/>
     <use xlink:href="#DejaVuSans-Bold-72" transform="translate(89.208984 0)"/>
     <use xlink:href="#DejaVuSans-Bold-6f" transform="translate(138.525391 0)"/>
     <use xlink:href="#DejaVuSans-Bold-6e" transform="translate(207.226562 0)"/>
     <use xlink:href="#DejaVuSans-Bold-74" transform="translate(278.417969 0)"/>
     <use xlink:href="#DejaVuSans-Bold-65" transform="translate(326.220703 0)"/>
     <use xlink:href="#DejaVuSans-Bold-6e" transform="translate(394.042969 0)"/>
     <use xlink:href="#DejaVuSans-Bold-64" transform="translate(465.234375 0)"/>
     <use xlink:href="#DejaVuSans-Bold-5f" transform="translate(536.816406 0)"/>
     <use xlink:href="#DejaVuSans-Bold-76" transform="translate(586.816406 0)"/>
     <use xlink:href="#DejaVuSans-Bold-32" transform="translate(652.001953 0)"/>
     <use xlink:href="#DejaVuSans-Bold-29" transform="translate(721.582031 0)"/>
    </g>
   </g>
   <g id="text_2">
    <!-- FastAPI Backend -->
    <g style="fill: #ffffff" transform="translate(332.404375 105.834987) scale(0.08 -0.08)">
     <defs>
      <path id="DejaVuSans-Bold-61" d="M 2106 1575 
Q 1756 1575 1579 1456 
Q 1403 1338 1403 1106 
Q 1403 894 1545 773 
Q 1688 653 1941 653 
Q 2256 653 2472 879 
Q 2688 1106 2688 1447 
L 2688 1575 
L 2106 1575 
z
M 3816 1997 
L 3816 0 
L 2688 0 
L 2688 519 
Q 2463 200 2181 54 
Q 1900 -91 1497 -91 
Q 953 -91 614 226 
Q 275 544 275 1050 
Q 275 1666 698 1953 
Q 1122 2241 2028 2241 
L 2688 2241 
L 2688 2328 
Q 2688 2594 2478 2717 
Q 2269 2841 1825 2841 
Q 1466 2841 1156 2769 
Q 847 2697 581 2553 
L 581 3406 
Q 941 3494 1303 3539 
Q 1666 3584 2028 3584 
Q 2975 3584 3395 3211 
Q 3816 2838 3816 1997 
z
" transform="scale(0.015625)"/>
      <path id="DejaVuSans-Bold-41" d="M 3419 850 
L 1538 850 
L 1241 0 
L 31 0 
L 1759 4666 
L 3194 4666 
L 4922 0 
L 3713 0 
L 3419 850 
z
M 1838 1716 
L 3116 1716 
L 2478 3572 
L 1838 1716 
z
" transform="scale(0.015625)"/>
      <path id="DejaVuSans-Bold-50" d="M 588 4666 
L 2584 4666 
Q 3475 4666 3951 4270 
Q 4428 3875 4428 3144 
Q 4428 2409 3951 2014 
Q 3475 1619 2584 1619 
L 1791 1619 
L 1791 0 
L 588 0 
L 588 4666 
z
M 1791 3794 
L 1791 2491 
L 2456 2491 
Q 2806 2491 2997 2661 
Q 3188 2831 3188 3144 
Q 3188 3456 2997 3625 
Q 2806 3794 2456 3794 
L 1791 3794 
z
" transform="scale(0.015625)"/>
      <path id="DejaVuSans-Bold-49" d="M 588 4666 
L 1791 4666 
L 1791 0 
L 588 0 
L 588 4666 
z
" transform="scale(0.015625)"/>
      <path id="DejaVuSans-Bold-42" d="M 2456 2859 
Q 2741 2859 2887 2984 
Q 3034 3109 3034 3353 
Q 3034 3594 2887 3720 
Q 2741 3847 2456 3847 
L 1791 3847 
L 1791 2859 
L 2456 2859 
z
M 2497 819 
Q 2859 819 3042 972 
Q 3225 1125 3225 1434 
Q 3225 1738 3044 1889 
Q 2863 2041 2497 2041 
L 1791 2041 
L 1791 819 
L 2497 819 
z
M 3616 2497 
Q 4003 2384 4215 2081 
Q 4428 1778 4428 1338 
Q 4428 663 3972 331 
Q 3516 0 2584 0 
L 588 0 
L 588 4666 
L 2394 4666 
Q 3366 4666 3802 4372 
Q 4238 4078 4238 3431 
Q 4238 3091 4078 2852 
Q 3919 2613 3616 2497 
z
" transform="scale(0.015625)"/>
      <path id="DejaVuSans-Bold-63" d="M 3366 3391 
L 3366 2478 
Q 3138 2634 2908 2709 
Q 2678 2784 2431 2784 
Q 1963 2784 1702 2511 
Q 1441 2238 1441 1747 
Q 1441 1256 1702 982 
Q 1963 709 2431 709 
Q 2694 709 2930 787 
Q 3166 866 3366 1019 
L 3366 103 
Q 3103 6 2833 -42 
Q 2563 -91 2291 -91 
Q 1344 -91 809 395 
Q 275 881 275 1747 
Q 275 2613 809 3098 
Q 1344 3584 2291 3584 
Q 2566 3584 2833 3536 
Q 3100 3488 3366 3391 
z
" transform="scale(0.015625)"/>
      <path id="DejaVuSans-Bold-6b" d="M 538 4863 
L 1656 4863 
L 1656 2216 
L 2944 3500 
L 4244 3500 
L 2534 1894 
L 4378 0 
L 3022 0 
L 1656 1459 
L 1656 0 
L 538 0 
L 538 4863 
z
" transform="scale(0.015625)"/>
     </defs>
     <use xlink:href="#DejaVuSans-Bold-46"/>
     <use xlink:href="#DejaVuSans-Bold-61" transform="translate(62.435547 0)"/>
     <use xlink:href="#DejaVuSans-Bold-73" transform="translate(129.916016 0)"/>
     <use xlink:href="#DejaVuSans-Bold-74" transform="translate(189.4375 0)"/>
     <use xlink:href="#DejaVuSans-Bold-41" transform="translate(237.240234 0)"/>
     <use xlink:href="#DejaVuSans-Bold-50" transform="translate(314.632812 0)"/>
     <use xlink:href="#DejaVuSans-Bold-49" transform="translate(387.923828 0)"/>
     <use xlink:href="#DejaVuSans-Bold-20" transform="translate(425.130859 0)"/>
     <use xlink:href="#DejaVuSans-Bold-42" transform="translate(459.945312 0)"/>
     <use xlink:href="#DejaVuSans-Bold-61" transform="translate(536.166016 0)"/>
     <use xlink:href="#DejaVuSans-Bold-63" transform="translate(603.646484 0)"/>
     <use xlink:href="#DejaVuSans-Bold-6b" transform="translate(662.923828 0)"/>
     <use xlink:href="#DejaVuSans-Bold-65" transform="translate(726.802734 0)"/>
     <use xlink:href="#DejaVuSans-Bold-6e" transform="translate(794.625 0)"/>
     <use xlink:href="#DejaVuSans-Bold-64" transform="translate(865.816406 0)"/>
    </g>
    <!-- (port 8001) -->
    <g style="fill: #ffffff" transform="translate(344.223125 114.793237) scale(0.08 -0.08)">
     <defs>
      <path id="DejaVuSans-Bold-70" d="M 1656 506 
L 1656 -1331 
L 538 -1331 
L 538 3500 
L 1656 3500 
L 1656 2988 
Q 1888 3294 2169 3439 
Q 2450 3584 2816 3584 
Q 3463 3584 3878 3070 
Q 4294 2556 4294 1747 
Q 4294 938 3878 423 
Q 3463 -91 2816 -91 
Q 2450 -91 2169 54 
Q 1888 200 1656 506 
z
M 2400 2772 
Q 2041 2772 1848 2508 
Q 1656 2244 1656 1747 
Q 1656 1250 1848 986 
Q 2041 722 2400 722 
Q 2759 722 2948 984 
Q 3138 1247 3138 1747 
Q 3138 2247 2948 2509 
Q 2759 2772 2400 2772 
z
" transform="scale(0.015625)"/>
      <path id="DejaVuSans-Bold-38" d="M 2228 2088 
Q 1891 2088 1709 1903 
Q 1528 1719 1528 1375 
Q 1528 1031 1709 848 
Q 1891 666 2228 666 
Q 2563 666 2741 848 
Q 2919 1031 2919 1375 
Q 2919 1722 2741 1905 
Q 2563 2088 2228 2088 
z
M 1350 2484 
Q 925 2613 709 2878 
Q 494 3144 494 3541 
Q 494 4131 934 4440 
Q 1375 4750 2228 4750 
Q 3075 4750 3515 4442 
Q 3956 4134 3956 3541 
Q 3956 3144 3739 2878 
Q 3522 2613 3097 2484 
Q 3572 2353 3814 2058 
Q 4056 1763 4056 1313 
Q 4056 619 3595 264 
Q 3134 -91 2228 -91 
Q 1319 -91 855 264 
Q 391 619 391 1313 
Q 391 1763 633 2058 
Q 875 2353 1350 2484 
z
M 1631 3419 
Q 1631 3141 1786 2991 
Q 1941 2841 2228 2841 
Q 2509 2841 2662 2991 
Q 2816 3141 2816 3419 
Q 2816 3697 2662 3845 
Q 2509 3994 2228 3994 
Q 1941 3994 1786 3844 
Q 1631 3694 1631 3419 
z
" transform="scale(0.015625)"/>
      <path id="DejaVuSans-Bold-30" d="M 2944 2338 
Q 2944 3213 2780 3570 
Q 2616 3928 2228 3928 
Q 1841 3928 1675 3570 
Q 1509 3213 1509 2338 
Q 1509 1453 1675 1090 
Q 1841 728 2228 728 
Q 2613 728 2778 1090 
Q 2944 1453 2944 2338 
z
M 4147 2328 
Q 4147 1169 3647 539 
Q 3147 -91 2228 -91 
Q 1306 -91 806 539 
Q 306 1169 306 2328 
Q 306 3491 806 4120 
Q 1306 4750 2228 4750 
Q 3147 4750 3647 4120 
Q 4147 3491 4147 2328 
z
" transform="scale(0.015625)"/>
      <path id="DejaVuSans-Bold-31" d="M 750 831 
L 1813 831 
L 1813 3847 
L 722 3622 
L 722 4441 
L 1806 4666 
L 2950 4666 
L 2950 831 
L 4013 831 
L 4013 0 
L 750 0 
L 750 831 
z
" transform="scale(0.015625)"/>
     </defs>
     <use xlink:href="#DejaVuSans-Bold-28"/>
     <use xlink:href="#DejaVuSans-Bold-70" transform="translate(45.703125 0)"/>
     <use xlink:href="#DejaVuSans-Bold-6f" transform="translate(117.285156 0)"/>
     <use xlink:href="#DejaVuSans-Bold-72" transform="translate(185.986328 0)"/>
     <use xlink:href="#DejaVuSans-Bold-74" transform="translate(235.302734 0)"/>
     <use xlink:href="#DejaVuSans-Bold-20" transform="translate(283.105469 0)"/>
     <use xlink:href="#DejaVuSans-Bold-38" transform="translate(317.919922 0)"/>
     <use xlink:href="#DejaVuSans-Bold-30" transform="translate(387.5 0)"/>
     <use xlink:href="#DejaVuSans-Bold-30" transform="translate(457.080078 0)"/>
     <use xlink:href="#DejaVuSans-Bold-31" transform="translate(526.660156 0)"/>
     <use xlink:href="#DejaVuSans-Bold-29" transform="translate(596.240234 0)"/>
    </g>
   </g>
   <g id="text_3">
    <!-- Validation Store -->
    <g style="fill: #ffffff" transform="translate(542.7725 105.834987) scale(0.08 -0.08)">
     <defs>
      <path id="DejaVuSans-Bold-56" d="M 31 4666 
L 1241 4666 
L 2478 1222 
L 3713 4666 
L 4922 4666 
L 3194 0 
L 1759 0 
L 31 4666 
z
" transform="scale(0.015625)"/>
      <path id="DejaVuSans-Bold-6c" d="M 538 4863 
L 1656 4863 
L 1656 0 
L 538 0 
L 538 4863 
z
" transform="scale(0.015625)"/>
      <path id="DejaVuSans-Bold-69" d="M 538 3500 
L 1656 3500 
L 1656 0 
L 538 0 
L 538 3500 
z
M 538 4863 
L 1656 4863 
L 1656 3950 
L 538 3950 
L 538 4863 
z
" transform="scale(0.015625)"/>
      <path id="DejaVuSans-Bold-53" d="M 3834 4519 
L 3834 3531 
Q 3450 3703 3084 3790 
Q 2719 3878 2394 3878 
Q 1963 3878 1756 3759 
Q 1550 3641 1550 3391 
Q 1550 3203 1689 3098 
Q 1828 2994 2194 2919 
L 2706 2816 
Q 3484 2659 3812 2340 
Q 4141 2022 4141 1434 
Q 4141 663 3683 286 
Q 3225 -91 2284 -91 
Q 1841 -91 1394 -6 
Q 947 78 500 244 
L 500 1259 
Q 947 1022 1364 901 
Q 1781 781 2169 781 
Q 2563 781 2772 912 
Q 2981 1044 2981 1288 
Q 2981 1506 2839 1625 
Q 2697 1744 2272 1838 
L 1806 1941 
Q 1106 2091 782 2419 
Q 459 2747 459 3303 
Q 459 4000 909 4375 
Q 1359 4750 2203 4750 
Q 2588 4750 2994 4692 
Q 3400 4634 3834 4519 
z
" transform="scale(0.015625)"/>
     </defs>
     <use xlink:href="#DejaVuSans-Bold-56"/>
     <use xlink:href="#DejaVuSans-Bold-61" transform="translate(71.892578 0)"/>
     <use xlink:href="#DejaVuSans-Bold-6c" transform="translate(139.373047 0)"/>
     <use xlink:href="#DejaVuSans-Bold-69" transform="translate(173.650391 0)"/>
     <use xlink:href="#DejaVuSans-Bold-64" transform="translate(207.927734 0)"/>
     <use xlink:href="#DejaVuSans-Bold-61" transform="translate(279.509766 0)"/>
     <use xlink:href="#DejaVuSans-Bold-74" transform="translate(346.990234 0)"/>
     <use xlink:href="#DejaVuSans-Bold-69" transform="translate(394.792969 0)"/>
     <use xlink:href="#DejaVuSans-Bold-6f" transform="translate(429.070312 0)"/>
     <use xlink:href="#DejaVuSans-Bold-6e" transform="translate(497.771484 0)"/>
     <use xlink:href="#DejaVuSans-Bold-20" transform="translate(568.962891 0)"/>
     <use xlink:href="#DejaVuSans-Bold-53" transform="translate(603.777344 0)"/>
     <use xlink:href="#DejaVuSans-Bold-74" transform="translate(675.798828 0)"/>
     <use xlink:href="#DejaVuSans-Bold-6f" transform="translate(723.601562 0)"/>
     <use xlink:href="#DejaVuSans-Bold-72" transform="translate(792.302734 0)"/>
     <use xlink:href="#DejaVuSans-Bold-65" transform="translate(841.619141 0)"/>
    </g>
    <!-- (JSON) -->
    <g style="fill: #ffffff" transform="translate(564.376875 114.793237) scale(0.08 -0.08)">
     <defs>
      <path id="DejaVuSans-Bold-4a" d="M 588 4666 
L 1791 4666 
L 1791 453 
Q 1791 -419 1317 -850 
Q 844 -1281 -116 -1281 
L -359 -1281 
L -359 -372 
L -172 -372 
Q 203 -372 395 -162 
Q 588 47 588 453 
L 588 4666 
z
" transform="scale(0.015625)"/>
      <path id="DejaVuSans-Bold-4f" d="M 2719 3878 
Q 2169 3878 1866 3472 
Q 1563 3066 1563 2328 
Q 1563 1594 1866 1187 
Q 2169 781 2719 781 
Q 3272 781 3575 1187 
Q 3878 1594 3878 2328 
Q 3878 3066 3575 3472 
Q 3272 3878 2719 3878 
z
M 2719 4750 
Q 3844 4750 4481 4106 
Q 5119 3463 5119 2328 
Q 5119 1197 4481 553 
Q 3844 -91 2719 -91 
Q 1597 -91 958 553 
Q 319 1197 319 2328 
Q 319 3463 958 4106 
Q 1597 4750 2719 4750 
z
" transform="scale(0.015625)"/>
     </defs>
     <use xlink:href="#DejaVuSans-Bold-28"/>
     <use xlink:href="#DejaVuSans-Bold-4a" transform="translate(45.703125 0)"/>
     <use xlink:href="#DejaVuSans-Bold-53" transform="translate(82.910156 0)"/>
     <use xlink:href="#DejaVuSans-Bold-4f" transform="translate(154.931641 0)"/>
     <use xlink:href="#DejaVuSans-Bold-4e" transform="translate(239.941406 0)"/>
     <use xlink:href="#DejaVuSans-Bold-29" transform="translate(323.632812 0)"/>
    </g>
   </g>
   <g id="text_4">
    <!-- Phase 19 -->
    <g style="fill: #ffffff" transform="translate(168.01875 194.538987) scale(0.08 -0.08)">
     <defs>
      <path id="DejaVuSans-Bold-68" d="M 4056 2131 
L 4056 0 
L 2931 0 
L 2931 347 
L 2931 1625 
Q 2931 2084 2911 2256 
Q 2891 2428 2841 2509 
Q 2775 2619 2662 2680 
Q 2550 2741 2406 2741 
Q 2056 2741 1856 2470 
Q 1656 2200 1656 1722 
L 1656 0 
L 538 0 
L 538 4863 
L 1656 4863 
L 1656 2988 
Q 1909 3294 2193 3439 
Q 2478 3584 2822 3584 
Q 3428 3584 3742 3212 
Q 4056 2841 4056 2131 
z
" transform="scale(0.015625)"/>
      <path id="DejaVuSans-Bold-39" d="M 641 103 
L 641 966 
Q 928 831 1190 764 
Q 1453 697 1709 697 
Q 2247 697 2547 995 
Q 2847 1294 2900 1881 
Q 2688 1725 2447 1647 
Q 2206 1569 1925 1569 
Q 1209 1569 770 1986 
Q 331 2403 331 3084 
Q 331 3838 820 4291 
Q 1309 4744 2131 4744 
Q 3044 4744 3544 4128 
Q 4044 3513 4044 2388 
Q 4044 1231 3459 570 
Q 2875 -91 1856 -91 
Q 1528 -91 1228 -42 
Q 928 6 641 103 
z
M 2125 2350 
Q 2441 2350 2600 2554 
Q 2759 2759 2759 3169 
Q 2759 3575 2600 3781 
Q 2441 3988 2125 3988 
Q 1809 3988 1650 3781 
Q 1491 3575 1491 3169 
Q 1491 2759 1650 2554 
Q 1809 2350 2125 2350 
z
" transform="scale(0.015625)"/>
     </defs>
     <use xlink:href="#DejaVuSans-Bold-50"/>
     <use xlink:href="#DejaVuSans-Bold-68" transform="translate(73.291016 0)"/>
     <use xlink:href="#DejaVuSans-Bold-61" transform="translate(144.482422 0)"/>
     <use xlink:href="#DejaVuSans-Bold-73" transform="translate(211.962891 0)"/>
     <use xlink:href="#DejaVuSans-Bold-65" transform="translate(271.484375 0)"/>
     <use xlink:href="#DejaVuSans-Bold-20" transform="translate(339.306641 0)"/>
     <use xlink:href="#DejaVuSans-Bold-31" transform="translate(374.121094 0)"/>
     <use xlink:href="#DejaVuSans-Bold-39" transform="translate(443.701172 0)"/>
    </g>
    <!-- Prediction -->
    <g style="fill: #ffffff" transform="translate(165.448125 203.497237) scale(0.08 -0.08)">
     <use xlink:href="#DejaVuSans-Bold-50"/>
     <use xlink:href="#DejaVuSans-Bold-72" transform="translate(73.291016 0)"/>
     <use xlink:href="#DejaVuSans-Bold-65" transform="translate(122.607422 0)"/>
     <use xlink:href="#DejaVuSans-Bold-64" transform="translate(190.429688 0)"/>
     <use xlink:href="#DejaVuSans-Bold-69" transform="translate(262.011719 0)"/>
     <use xlink:href="#DejaVuSans-Bold-63" transform="translate(296.289062 0)"/>
     <use xlink:href="#DejaVuSans-Bold-74" transform="translate(355.566406 0)"/>
     <use xlink:href="#DejaVuSans-Bold-69" transform="translate(403.369141 0)"/>
     <use xlink:href="#DejaVuSans-Bold-6f" transform="translate(437.646484 0)"/>
     <use xlink:href="#DejaVuSans-Bold-6e" transform="translate(506.347656 0)"/>
    </g>
   </g>
   <g id="text_5">
    <!-- Phase 20.2 -->
    <g style="fill: #ffffff" transform="translate(331.11625 194.538987) scale(0.08 -0.08)">
     <use xlink:href="#DejaVuSans-Bold-50"/>
     <use xlink:href="#DejaVuSans-Bold-68" transform="translate(73.291016 0)"/>
     <use xlink:href="#DejaVuSans-Bold-61" transform="translate(144.482422 0)"/>
     <use xlink:href="#DejaVuSans-Bold-73" transform="translate(211.962891 0)"/>
     <use xlink:href="#DejaVuSans-Bold-65" transform="translate(271.484375 0)"/>
     <use xlink:href="#DejaVuSans-Bold-20" transform="translate(339.306641 0)"/>
     <use xlink:href="#DejaVuSans-Bold-32" transform="translate(374.121094 0)"/>
     <use xlink:href="#DejaVuSans-Bold-30" transform="translate(443.701172 0)"/>
     <use xlink:href="#DejaVuSans-Bold-2e" transform="translate(513.28125 0)"/>
     <use xlink:href="#DejaVuSans-Bold-32" transform="translate(551.269531 0)"/>
    </g>
    <!-- Optimizer -->
    <g style="fill: #ffffff" transform="translate(333.85 203.497237) scale(0.08 -0.08)">
     <defs>
      <path id="DejaVuSans-Bold-6d" d="M 3781 2919 
Q 3994 3244 4286 3414 
Q 4578 3584 4928 3584 
Q 5531 3584 5847 3212 
Q 6163 2841 6163 2131 
L 6163 0 
L 5038 0 
L 5038 1825 
Q 5041 1866 5042 1909 
Q 5044 1953 5044 2034 
Q 5044 2406 4934 2573 
Q 4825 2741 4581 2741 
Q 4263 2741 4089 2478 
Q 3916 2216 3909 1719 
L 3909 0 
L 2784 0 
L 2784 1825 
Q 2784 2406 2684 2573 
Q 2584 2741 2328 2741 
Q 2006 2741 1831 2477 
Q 1656 2213 1656 1722 
L 1656 0 
L 531 0 
L 531 3500 
L 1656 3500 
L 1656 2988 
Q 1863 3284 2130 3434 
Q 2397 3584 2719 3584 
Q 3081 3584 3359 3409 
Q 3638 3234 3781 2919 
z
" transform="scale(0.015625)"/>
      <path id="DejaVuSans-Bold-7a" d="M 366 3500 
L 3419 3500 
L 3419 2719 
L 1575 800 
L 3419 800 
L 3419 0 
L 288 0 
L 288 781 
L 2131 2700 
L 366 2700 
L 366 3500 
z
" transform="scale(0.015625)"/>
     </defs>
     <use xlink:href="#DejaVuSans-Bold-4f"/>
     <use xlink:href="#DejaVuSans-Bold-70" transform="translate(85.009766 0)"/>
     <use xlink:href="#DejaVuSans-Bold-74" transform="translate(156.591797 0)"/>
     <use xlink:href="#DejaVuSans-Bold-69" transform="translate(204.394531 0)"/>
     <use xlink:href="#DejaVuSans-Bold-6d" transform="translate(238.671875 0)"/>
     <use xlink:href="#DejaVuSans-Bold-69" transform="translate(342.871094 0)"/>
     <use xlink:href="#DejaVuSans-Bold-7a" transform="translate(377.148438 0)"/>
     <use xlink:href="#DejaVuSans-Bold-65" transform="translate(435.351562 0)"/>
     <use xlink:href="#DejaVuSans-Bold-72" transform="translate(503.173828 0)"/>
    </g>
   </g>
   <g id="text_6">
    <!-- Phase 31 V2 -->
    <g style="fill: #ffffff" transform="translate(495.5475 194.538987) scale(0.08 -0.08)">
     <defs>
      <path id="DejaVuSans-Bold-33" d="M 2981 2516 
Q 3453 2394 3698 2092 
Q 3944 1791 3944 1325 
Q 3944 631 3412 270 
Q 2881 -91 1863 -91 
Q 1503 -91 1142 -33 
Q 781 25 428 141 
L 428 1069 
Q 766 900 1098 814 
Q 1431 728 1753 728 
Q 2231 728 2486 893 
Q 2741 1059 2741 1369 
Q 2741 1688 2480 1852 
Q 2219 2016 1709 2016 
L 1228 2016 
L 1228 2791 
L 1734 2791 
Q 2188 2791 2409 2933 
Q 2631 3075 2631 3366 
Q 2631 3634 2415 3781 
Q 2200 3928 1806 3928 
Q 1516 3928 1219 3862 
Q 922 3797 628 3669 
L 628 4550 
Q 984 4650 1334 4700 
Q 1684 4750 2022 4750 
Q 2931 4750 3382 4451 
Q 3834 4153 3834 3553 
Q 3834 3144 3618 2883 
Q 3403 2622 2981 2516 
z
" transform="scale(0.015625)"/>
     </defs>
     <use xlink:href="#DejaVuSans-Bold-50"/>
     <use xlink:href="#DejaVuSans-Bold-68" transform="translate(73.291016 0)"/>
     <use xlink:href="#DejaVuSans-Bold-61" transform="translate(144.482422 0)"/>
     <use xlink:href="#DejaVuSans-Bold-73" transform="translate(211.962891 0)"/>
     <use xlink:href="#DejaVuSans-Bold-65" transform="translate(271.484375 0)"/>
     <use xlink:href="#DejaVuSans-Bold-20" transform="translate(339.306641 0)"/>
     <use xlink:href="#DejaVuSans-Bold-33" transform="translate(374.121094 0)"/>
     <use xlink:href="#DejaVuSans-Bold-31" transform="translate(443.701172 0)"/>
     <use xlink:href="#DejaVuSans-Bold-20" transform="translate(513.28125 0)"/>
     <use xlink:href="#DejaVuSans-Bold-56" transform="translate(548.095703 0)"/>
     <use xlink:href="#DejaVuSans-Bold-32" transform="translate(625.488281 0)"/>
    </g>
    <!-- (Research) -->
    <g style="fill: #ffffff" transform="translate(498.91625 203.497237) scale(0.08 -0.08)">
     <defs>
      <path id="DejaVuSans-Bold-52" d="M 2297 2597 
Q 2675 2597 2839 2737 
Q 3003 2878 3003 3200 
Q 3003 3519 2839 3656 
Q 2675 3794 2297 3794 
L 1791 3794 
L 1791 2597 
L 2297 2597 
z
M 1791 1766 
L 1791 0 
L 588 0 
L 588 4666 
L 2425 4666 
Q 3347 4666 3776 4356 
Q 4206 4047 4206 3378 
Q 4206 2916 3982 2619 
Q 3759 2322 3309 2181 
Q 3556 2125 3751 1926 
Q 3947 1728 4147 1325 
L 4800 0 
L 3519 0 
L 2950 1159 
Q 2778 1509 2601 1637 
Q 2425 1766 2131 1766 
L 1791 1766 
z
" transform="scale(0.015625)"/>
     </defs>
     <use xlink:href="#DejaVuSans-Bold-28"/>
     <use xlink:href="#DejaVuSans-Bold-52" transform="translate(45.703125 0)"/>
     <use xlink:href="#DejaVuSans-Bold-65" transform="translate(122.705078 0)"/>
     <use xlink:href="#DejaVuSans-Bold-73" transform="translate(190.527344 0)"/>
     <use xlink:href="#DejaVuSans-Bold-65" transform="translate(250.048828 0)"/>
     <use xlink:href="#DejaVuSans-Bold-61" transform="translate(317.871094 0)"/>
     <use xlink:href="#DejaVuSans-Bold-72" transform="translate(385.351562 0)"/>
     <use xlink:href="#DejaVuSans-Bold-63" transform="translate(434.667969 0)"/>
     <use xlink:href="#DejaVuSans-Bold-68" transform="translate(493.945312 0)"/>
     <use xlink:href="#DejaVuSans-Bold-29" transform="translate(565.136719 0)"/>
    </g>
   </g>
   <g id="text_7">
    <!-- Phase 32 -->
    <g style="fill: #ffffff" transform="translate(168.01875 283.211737) scale(0.08 -0.08)">
     <use xlink:href="#DejaVuSans-Bold-50"/>
     <use xlink:href="#DejaVuSans-Bold-68" transform="translate(73.291016 0)"/>
     <use xlink:href="#DejaVuSans-Bold-61" transform="translate(144.482422 0)"/>
     <use xlink:href="#DejaVuSans-Bold-73" transform="translate(211.962891 0)"/>
     <use xlink:href="#DejaVuSans-Bold-65" transform="translate(271.484375 0)"/>
     <use xlink:href="#DejaVuSans-Bold-20" transform="translate(339.306641 0)"/>
     <use xlink:href="#DejaVuSans-Bold-33" transform="translate(374.121094 0)"/>
     <use xlink:href="#DejaVuSans-Bold-32" transform="translate(443.701172 0)"/>
    </g>
    <!-- Hybrid Engine -->
    <g style="fill: #ffffff" transform="translate(156.7575 292.169987) scale(0.08 -0.08)">
     <defs>
      <path id="DejaVuSans-Bold-48" d="M 588 4666 
L 1791 4666 
L 1791 2888 
L 3566 2888 
L 3566 4666 
L 4769 4666 
L 4769 0 
L 3566 0 
L 3566 1978 
L 1791 1978 
L 1791 0 
L 588 0 
L 588 4666 
z
" transform="scale(0.015625)"/>
      <path id="DejaVuSans-Bold-79" d="M 78 3500 
L 1197 3500 
L 2138 1125 
L 2938 3500 
L 4056 3500 
L 2584 -331 
Q 2363 -916 2067 -1148 
Q 1772 -1381 1288 -1381 
L 641 -1381 
L 641 -647 
L 991 -647 
Q 1275 -647 1404 -556 
Q 1534 -466 1606 -231 
L 1638 -134 
L 78 3500 
z
" transform="scale(0.015625)"/>
      <path id="DejaVuSans-Bold-62" d="M 2400 722 
Q 2759 722 2948 984 
Q 3138 1247 3138 1747 
Q 3138 2247 2948 2509 
Q 2759 2772 2400 2772 
Q 2041 2772 1848 2508 
Q 1656 2244 1656 1747 
Q 1656 1250 1848 986 
Q 2041 722 2400 722 
z
M 1656 2988 
Q 1888 3294 2169 3439 
Q 2450 3584 2816 3584 
Q 3463 3584 3878 3070 
Q 4294 2556 4294 1747 
Q 4294 938 3878 423 
Q 3463 -91 2816 -91 
Q 2450 -91 2169 54 
Q 1888 200 1656 506 
L 1656 0 
L 538 0 
L 538 4863 
L 1656 4863 
L 1656 2988 
z
" transform="scale(0.015625)"/>
      <path id="DejaVuSans-Bold-45" d="M 588 4666 
L 3834 4666 
L 3834 3756 
L 1791 3756 
L 1791 2888 
L 3713 2888 
L 3713 1978 
L 1791 1978 
L 1791 909 
L 3903 909 
L 3903 0 
L 588 0 
L 588 4666 
z
" transform="scale(0.015625)"/>
      <path id="DejaVuSans-Bold-67" d="M 2919 594 
Q 2688 288 2409 144 
Q 2131 0 1766 0 
Q 1125 0 706 504 
Q 288 1009 288 1791 
Q 288 2575 706 3076 
Q 1125 3578 1766 3578 
Q 2131 3578 2409 3434 
Q 2688 3291 2919 2981 
L 2919 3500 
L 4044 3500 
L 4044 353 
Q 4044 -491 3511 -936 
Q 2978 -1381 1966 -1381 
Q 1638 -1381 1331 -1331 
Q 1025 -1281 716 -1178 
L 716 -306 
Q 1009 -475 1290 -558 
Q 1572 -641 1856 -641 
Q 2406 -641 2662 -400 
Q 2919 -159 2919 353 
L 2919 594 
z
M 2181 2772 
Q 1834 2772 1640 2515 
Q 1447 2259 1447 1791 
Q 1447 1309 1634 1061 
Q 1822 813 2181 813 
Q 2531 813 2725 1069 
Q 2919 1325 2919 1791 
Q 2919 2259 2725 2515 
Q 2531 2772 2181 2772 
z
" transform="scale(0.015625)"/>
     </defs>
     <use xlink:href="#DejaVuSans-Bold-48"/>
     <use xlink:href="#DejaVuSans-Bold-79" transform="translate(83.691406 0)"/>
     <use xlink:href="#DejaVuSans-Bold-62" transform="translate(148.876953 0)"/>
     <use xlink:href="#DejaVuSans-Bold-72" transform="translate(220.458984 0)"/>
     <use xlink:href="#DejaVuSans-Bold-69" transform="translate(269.775391 0)"/>
     <use xlink:href="#DejaVuSans-Bold-64" transform="translate(304.052734 0)"/>
     <use xlink:href="#DejaVuSans-Bold-20" transform="translate(375.634766 0)"/>
     <use xlink:href="#DejaVuSans-Bold-45" transform="translate(410.449219 0)"/>
     <use xlink:href="#DejaVuSans-Bold-6e" transform="translate(478.759766 0)"/>
     <use xlink:href="#DejaVuSans-Bold-67" transform="translate(549.951172 0)"/>
     <use xlink:href="#DejaVuSans-Bold-69" transform="translate(621.533203 0)"/>
     <use xlink:href="#DejaVuSans-Bold-6e" transform="translate(655.810547 0)"/>
     <use xlink:href="#DejaVuSans-Bold-65" transform="translate(727.001953 0)"/>
    </g>
   </g>
   <g id="text_8">
    <!-- Phase 29 -->
    <g style="fill: #ffffff" transform="translate(335.41875 283.211737) scale(0.08 -0.08)">
     <use xlink:href="#DejaVuSans-Bold-50"/>
     <use xlink:href="#DejaVuSans-Bold-68" transform="translate(73.291016 0)"/>
     <use xlink:href="#DejaVuSans-Bold-61" transform="translate(144.482422 0)"/>
     <use xlink:href="#DejaVuSans-Bold-73" transform="translate(211.962891 0)"/>
     <use xlink:href="#DejaVuSans-Bold-65" transform="translate(271.484375 0)"/>
     <use xlink:href="#DejaVuSans-Bold-20" transform="translate(339.306641 0)"/>
     <use xlink:href="#DejaVuSans-Bold-32" transform="translate(374.121094 0)"/>
     <use xlink:href="#DejaVuSans-Bold-39" transform="translate(443.701172 0)"/>
    </g>
    <!-- Explainability -->
    <g style="fill: #ffffff" transform="translate(325.289375 292.169987) scale(0.08 -0.08)">
     <use xlink:href="#DejaVuSans-Bold-45"/>
     <use xlink:href="#DejaVuSans-Bold-78" transform="translate(68.310547 0)"/>
     <use xlink:href="#DejaVuSans-Bold-70" transform="translate(132.8125 0)"/>
     <use xlink:href="#DejaVuSans-Bold-6c" transform="translate(204.394531 0)"/>
     <use xlink:href="#DejaVuSans-Bold-61" transform="translate(238.671875 0)"/>
     <use xlink:href="#DejaVuSans-Bold-69" transform="translate(306.152344 0)"/>
     <use xlink:href="#DejaVuSans-Bold-6e" transform="translate(340.429688 0)"/>
     <use xlink:href="#DejaVuSans-Bold-61" transform="translate(411.621094 0)"/>
     <use xlink:href="#DejaVuSans-Bold-62" transform="translate(479.101562 0)"/>
     <use xlink:href="#DejaVuSans-Bold-69" transform="translate(550.683594 0)"/>
     <use xlink:href="#DejaVuSans-Bold-6c" transform="translate(584.960938 0)"/>
     <use xlink:href="#DejaVuSans-Bold-69" transform="translate(619.238281 0)"/>
     <use xlink:href="#DejaVuSans-Bold-74" transform="translate(653.515625 0)"/>
     <use xlink:href="#DejaVuSans-Bold-79" transform="translate(701.318359 0)"/>
    </g>
   </g>
   <g id="text_9">
    <!-- Phase 21 -->
    <g style="fill: #ffffff" transform="translate(502.81875 283.242987) scale(0.08 -0.08)">
     <use xlink:href="#DejaVuSans-Bold-50"/>
     <use xlink:href="#DejaVuSans-Bold-68" transform="translate(73.291016 0)"/>
     <use xlink:href="#DejaVuSans-Bold-61" transform="translate(144.482422 0)"/>
     <use xlink:href="#DejaVuSans-Bold-73" transform="translate(211.962891 0)"/>
     <use xlink:href="#DejaVuSans-Bold-65" transform="translate(271.484375 0)"/>
     <use xlink:href="#DejaVuSans-Bold-20" transform="translate(339.306641 0)"/>
     <use xlink:href="#DejaVuSans-Bold-32" transform="translate(374.121094 0)"/>
     <use xlink:href="#DejaVuSans-Bold-31" transform="translate(443.701172 0)"/>
    </g>
    <!-- Features -->
    <g style="fill: #ffffff" transform="translate(503.539375 292.201237) scale(0.08 -0.08)">
     <defs>
      <path id="DejaVuSans-Bold-75" d="M 500 1363 
L 500 3500 
L 1625 3500 
L 1625 3150 
Q 1625 2866 1622 2436 
Q 1619 2006 1619 1863 
Q 1619 1441 1641 1255 
Q 1663 1069 1716 984 
Q 1784 875 1895 815 
Q 2006 756 2150 756 
Q 2500 756 2700 1025 
Q 2900 1294 2900 1772 
L 2900 3500 
L 4019 3500 
L 4019 0 
L 2900 0 
L 2900 506 
Q 2647 200 2364 54 
Q 2081 -91 1741 -91 
Q 1134 -91 817 281 
Q 500 653 500 1363 
z
" transform="scale(0.015625)"/>
     </defs>
     <use xlink:href="#DejaVuSans-Bold-46"/>
     <use xlink:href="#DejaVuSans-Bold-65" transform="translate(64.310547 0)"/>
     <use xlink:href="#DejaVuSans-Bold-61" transform="translate(132.132812 0)"/>
     <use xlink:href="#DejaVuSans-Bold-74" transform="translate(199.613281 0)"/>
     <use xlink:href="#DejaVuSans-Bold-75" transform="translate(247.416016 0)"/>
     <use xlink:href="#DejaVuSans-Bold-72" transform="translate(318.607422 0)"/>
     <use xlink:href="#DejaVuSans-Bold-65" transform="translate(367.923828 0)"/>
     <use xlink:href="#DejaVuSans-Bold-73" transform="translate(435.746094 0)"/>
    </g>
   </g>
   <g id="text_10">
    <!-- Frozen Research Artifacts (Phases 16–33) -->
    <g style="fill: #ffffff" transform="translate(248.369375 376.426112) scale(0.08 -0.08)">
     <defs>
      <path id="DejaVuSans-Bold-36" d="M 2316 2303 
Q 2000 2303 1842 2098 
Q 1684 1894 1684 1484 
Q 1684 1075 1842 870 
Q 2000 666 2316 666 
Q 2634 666 2792 870 
Q 2950 1075 2950 1484 
Q 2950 1894 2792 2098 
Q 2634 2303 2316 2303 
z
M 3803 4544 
L 3803 3681 
Q 3506 3822 3243 3889 
Q 2981 3956 2731 3956 
Q 2194 3956 1894 3657 
Q 1594 3359 1544 2772 
Q 1750 2925 1990 3001 
Q 2231 3078 2516 3078 
Q 3231 3078 3670 2659 
Q 4109 2241 4109 1563 
Q 4109 813 3618 361 
Q 3128 -91 2303 -91 
Q 1394 -91 895 523 
Q 397 1138 397 2266 
Q 397 3422 980 4083 
Q 1563 4744 2578 4744 
Q 2900 4744 3203 4694 
Q 3506 4644 3803 4544 
z
" transform="scale(0.015625)"/>
      <path id="DejaVuSans-Bold-2013" d="M 344 2156 
L 2856 2156 
L 2856 1350 
L 344 1350 
L 344 2156 
z
" transform="scale(0.015625)"/>
     </defs>
     <use xlink:href="#DejaVuSans-Bold-46"/>
     <use xlink:href="#DejaVuSans-Bold-72" transform="translate(61.935547 0)"/>
     <use xlink:href="#DejaVuSans-Bold-6f" transform="translate(111.251953 0)"/>
     <use xlink:href="#DejaVuSans-Bold-7a" transform="translate(179.953125 0)"/>
     <use xlink:href="#DejaVuSans-Bold-65" transform="translate(238.15625 0)"/>
     <use xlink:href="#DejaVuSans-Bold-6e" transform="translate(305.978516 0)"/>
     <use xlink:href="#DejaVuSans-Bold-20" transform="translate(377.169922 0)"/>
     <use xlink:href="#DejaVuSans-Bold-52" transform="translate(411.984375 0)"/>
     <use xlink:href="#DejaVuSans-Bold-65" transform="translate(488.986328 0)"/>
     <use xlink:href="#DejaVuSans-Bold-73" transform="translate(556.808594 0)"/>
     <use xlink:href="#DejaVuSans-Bold-65" transform="translate(616.330078 0)"/>
     <use xlink:href="#DejaVuSans-Bold-61" transform="translate(684.152344 0)"/>
     <use xlink:href="#DejaVuSans-Bold-72" transform="translate(751.632812 0)"/>
     <use xlink:href="#DejaVuSans-Bold-63" transform="translate(800.949219 0)"/>
     <use xlink:href="#DejaVuSans-Bold-68" transform="translate(860.226562 0)"/>
     <use xlink:href="#DejaVuSans-Bold-20" transform="translate(931.417969 0)"/>
     <use xlink:href="#DejaVuSans-Bold-41" transform="translate(966.232422 0)"/>
     <use xlink:href="#DejaVuSans-Bold-72" transform="translate(1043.625 0)"/>
     <use xlink:href="#DejaVuSans-Bold-74" transform="translate(1092.941406 0)"/>
     <use xlink:href="#DejaVuSans-Bold-69" transform="translate(1140.744141 0)"/>
     <use xlink:href="#DejaVuSans-Bold-66" transform="translate(1175.021484 0)"/>
     <use xlink:href="#DejaVuSans-Bold-61" transform="translate(1218.527344 0)"/>
     <use xlink:href="#DejaVuSans-Bold-63" transform="translate(1286.007812 0)"/>
     <use xlink:href="#DejaVuSans-Bold-74" transform="translate(1345.285156 0)"/>
     <use xlink:href="#DejaVuSans-Bold-73" transform="translate(1393.087891 0)"/>
     <use xlink:href="#DejaVuSans-Bold-20" transform="translate(1452.609375 0)"/>
     <use xlink:href="#DejaVuSans-Bold-28" transform="translate(1487.423828 0)"/>
     <use xlink:href="#DejaVuSans-Bold-50" transform="translate(1533.126953 0)"/>
     <use xlink:href="#DejaVuSans-Bold-68" transform="translate(1606.417969 0)"/>
     <use xlink:href="#DejaVuSans-Bold-61" transform="translate(1677.609375 0)"/>
     <use xlink:href="#DejaVuSans-Bold-73" transform="translate(1745.089844 0)"/>
     <use xlink:href="#DejaVuSans-Bold-65" transform="translate(1804.611328 0)"/>
     <use xlink:href="#DejaVuSans-Bold-73" transform="translate(1872.433594 0)"/>
     <use xlink:href="#DejaVuSans-Bold-20" transform="translate(1931.955078 0)"/>
     <use xlink:href="#DejaVuSans-Bold-31" transform="translate(1966.769531 0)"/>
     <use xlink:href="#DejaVuSans-Bold-36" transform="translate(2036.349609 0)"/>
     <use xlink:href="#DejaVuSans-Bold-2013" transform="translate(2105.929688 0)"/>
     <use xlink:href="#DejaVuSans-Bold-33" transform="translate(2155.929688 0)"/>
     <use xlink:href="#DejaVuSans-Bold-33" transform="translate(2225.509766 0)"/>
     <use xlink:href="#DejaVuSans-Bold-29" transform="translate(2295.089844 0)"/>
    </g>
   </g>
   <g id="patch_12">
    <path d="M 148.671936 169.885938 
Q 258.298584 152.458838 366.821062 135.207264 
" style="fill: none; stroke: #333333; stroke-linecap: round"/>
    <path d="M 362.556673 133.860052 
L 366.821062 135.207264 
L 363.184658 137.810448 
" style="fill: none; stroke: #333333; stroke-linecap: round"/>
   </g>
   <g id="patch_13">
    <path d="M 356.680536 168.341306 
Q 362.924764 152.459213 368.759906 137.617623 
" style="fill: none; stroke: #333333; stroke-linecap: round"/>
    <path d="M 365.435005 140.608448 
L 368.759906 137.617623 
L 369.157625 142.072039 
" style="fill: none; stroke: #333333; stroke-linecap: round"/>
   </g>
   <g id="patch_14">
    <path d="M 521.397221 169.74788 
Q 446.621821 152.457878 372.935715 135.419748 
" style="fill: none; stroke: #333333; stroke-linecap: round"/>
    <path d="M 376.382326 138.269463 
L 372.935715 135.419748 
L 377.283453 134.372288 
" style="fill: none; stroke: #333333; stroke-linecap: round"/>
   </g>
   <g id="patch_15">
    <path d="M 355.95 256.906706 
Q 355.95 241.163656 355.95 226.53864 
" style="fill: none; stroke: #333333; stroke-linecap: round"/>
    <path d="M 353.95 230.53864 
L 355.95 226.53864 
L 357.95 230.53864 
" style="fill: none; stroke: #333333; stroke-linecap: round"/>
   </g>
   <g id="patch_16">
    <path d="M 340.447611 346.351079 
Q 265.276419 285.515761 190.974312 225.383784 
" style="fill: none; stroke-dasharray: 3.7,1.6; stroke-dashoffset: 0; stroke: #666666; stroke-linecap: round"/>
    <path d="M 192.825469 229.454806 
L 190.974312 225.383784 
L 195.341823 226.345471 
" style="fill: none; stroke-dasharray: 3.7,1.6; stroke-dashoffset: 0; stroke: #666666; stroke-linecap: round"/>
   </g>
   <g id="text_11">
    <!-- JSPL EAF Industrial AI — System Architecture (Release 1.0) -->
    <g transform="translate(109.143906 17.837812) scale(0.14 -0.14)">
     <defs>
      <path id="DejaVuSans-Bold-4c" d="M 588 4666 
L 1791 4666 
L 1791 909 
L 3903 909 
L 3903 0 
L 588 0 
L 588 4666 
z
" transform="scale(0.015625)"/>
      <path id="DejaVuSans-Bold-2014" d="M 344 2156 
L 6056 2156 
L 6056 1350 
L 344 1350 
L 344 2156 
z
" transform="scale(0.015625)"/>
     </defs>
     <use xlink:href="#DejaVuSans-Bold-4a"/>
     <use xlink:href="#DejaVuSans-Bold-53" transform="translate(37.207031 0)"/>
     <use xlink:href="#DejaVuSans-Bold-50" transform="translate(109.228516 0)"/>
     <use xlink:href="#DejaVuSans-Bold-4c" transform="translate(182.519531 0)"/>
     <use xlink:href="#DejaVuSans-Bold-20" transform="translate(246.240234 0)"/>
     <use xlink:href="#DejaVuSans-Bold-45" transform="translate(281.054688 0)"/>
     <use xlink:href="#DejaVuSans-Bold-41" transform="translate(349.365234 0)"/>
     <use xlink:href="#DejaVuSans-Bold-46" transform="translate(426.757812 0)"/>
     <use xlink:href="#DejaVuSans-Bold-20" transform="translate(495.068359 0)"/>
     <use xlink:href="#DejaVuSans-Bold-49" transform="translate(529.882812 0)"/>
     <use xlink:href="#DejaVuSans-Bold-6e" transform="translate(567.089844 0)"/>
     <use xlink:href="#DejaVuSans-Bold-64" transform="translate(638.28125 0)"/>
     <use xlink:href="#DejaVuSans-Bold-75" transform="translate(709.863281 0)"/>
     <use xlink:href="#DejaVuSans-Bold-73" transform="translate(781.054688 0)"/>
     <use xlink:href="#DejaVuSans-Bold-74" transform="translate(840.576172 0)"/>
     <use xlink:href="#DejaVuSans-Bold-72" transform="translate(888.378906 0)"/>
     <use xlink:href="#DejaVuSans-Bold-69" transform="translate(937.695312 0)"/>
     <use xlink:href="#DejaVuSans-Bold-61" transform="translate(971.972656 0)"/>
     <use xlink:href="#DejaVuSans-Bold-6c" transform="translate(1039.453125 0)"/>
     <use xlink:href="#DejaVuSans-Bold-20" transform="translate(1073.730469 0)"/>
     <use xlink:href="#DejaVuSans-Bold-41" transform="translate(1108.544922 0)"/>
     <use xlink:href="#DejaVuSans-Bold-49" transform="translate(1185.9375 0)"/>
     <use xlink:href="#DejaVuSans-Bold-20" transform="translate(1223.144531 0)"/>
     <use xlink:href="#DejaVuSans-Bold-2014" transform="translate(1257.958984 0)"/>
     <use xlink:href="#DejaVuSans-Bold-20" transform="translate(1357.958984 0)"/>
     <use xlink:href="#DejaVuSans-Bold-53" transform="translate(1392.773438 0)"/>
     <use xlink:href="#DejaVuSans-Bold-79" transform="translate(1464.794922 0)"/>
     <use xlink:href="#DejaVuSans-Bold-73" transform="translate(1529.980469 0)"/>
     <use xlink:href="#DejaVuSans-Bold-74" transform="translate(1589.501953 0)"/>
     <use xlink:href="#DejaVuSans-Bold-65" transform="translate(1637.304688 0)"/>
     <use xlink:href="#DejaVuSans-Bold-6d" transform="translate(1705.126953 0)"/>
     <use xlink:href="#DejaVuSans-Bold-20" transform="translate(1809.326172 0)"/>
     <use xlink:href="#DejaVuSans-Bold-41" transform="translate(1844.140625 0)"/>
     <use xlink:href="#DejaVuSans-Bold-72" transform="translate(1921.533203 0)"/>
     <use xlink:href="#DejaVuSans-Bold-63" transform="translate(1970.849609 0)"/>
     <use xlink:href="#DejaVuSans-Bold-68" transform="translate(2030.126953 0)"/>
     <use xlink:href="#DejaVuSans-Bold-69" transform="translate(2101.318359 0)"/>
     <use xlink:href="#DejaVuSans-Bold-74" transform="translate(2135.595703 0)"/>
     <use xlink:href="#DejaVuSans-Bold-65" transform="translate(2183.398438 0)"/>
     <use xlink:href="#DejaVuSans-Bold-63" transform="translate(2251.220703 0)"/>
     <use xlink:href="#DejaVuSans-Bold-74" transform="translate(2310.498047 0)"/>
     <use xlink:href="#DejaVuSans-Bold-75" transform="translate(2358.300781 0)"/>
     <use xlink:href="#DejaVuSans-Bold-72" transform="translate(2429.492188 0)"/>
     <use xlink:href="#DejaVuSans-Bold-65" transform="translate(2478.808594 0)"/>
     <use xlink:href="#DejaVuSans-Bold-20" transform="translate(2546.630859 0)"/>
     <use xlink:href="#DejaVuSans-Bold-28" transform="translate(2581.445312 0)"/>
     <use xlink:href="#DejaVuSans-Bold-52" transform="translate(2627.148438 0)"/>
     <use xlink:href="#DejaVuSans-Bold-65" transform="translate(2704.150391 0)"/>
     <use xlink:href="#DejaVuSans-Bold-6c" transform="translate(2771.972656 0)"/>
     <use xlink:href="#DejaVuSans-Bold-65" transform="translate(2806.25 0)"/>
     <use xlink:href="#DejaVuSans-Bold-61" transform="translate(2874.072266 0)"/>
     <use xlink:href="#DejaVuSans-Bold-73" transform="translate(2941.552734 0)"/>
     <use xlink:href="#DejaVuSans-Bold-65" transform="translate(3001.074219 0)"/>
     <use xlink:href="#DejaVuSans-Bold-20" transform="translate(3068.896484 0)"/>
     <use xlink:href="#DejaVuSans-Bold-31" transform="translate(3103.710938 0)"/>
     <use xlink:href="#DejaVuSans-Bold-2e" transform="translate(3173.291016 0)"/>
     <use xlink:href="#DejaVuSans-Bold-30" transform="translate(3211.279297 0)"/>
     <use xlink:href="#DejaVuSans-Bold-29" transform="translate(3280.859375 0)"/>
    </g>
   </g>
  </g>
 </g>
 <defs>
  <clipPath id="p93a4fb19d4">
   <rect x="7.2" y="23.837812" width="669.6" height="443.52"/>
  </clipPath>
 </defs>
</svg>
